<svg xmlns="http://www.w3.org/2000/svg" viewBox="0 0 24 24" width="24" height="24" fill="currentColor">
  <path d="M12 .5a12 12 0 00-3.79 23.39c.6.11.82-.26.82-.58v-2.03c-3.34.73-4.04-1.61-4.04-1.61-.55-1.39-1.35-1.76-1.35-1.76-1.1-.75.08-.74.08-.74 1.22.09 1.86 1.25 1.86 1.25 1.08 1.85 2.83 1.31 3.52 1 .11-.79.42-1.31.76-1.61-2.67-.3-5.47-1.34-5.47-5.97 0-1.32.47-2.39 1.24-3.23-.13-.3-.54-1.51.12-3.15 0 0 1.01-.32 3.3 1.23a11.47 11.47 0 016 0c2.29-1.55 3.3-1.23 3.3-1.23.66 1.64.25 2.85.12 3.15.77.84 1.24 1.91 1.24 3.23 0 4.64-2.81 5.66-5.49 5.96.43.37.81 1.1.81 2.22v3.29c0 .32.21.7.82.58A12 12 0 0012 .5z"/>
</svg>


