<svg xmlns="http://www.w3.org/2000/svg" viewBox="0 0 24 24" width="24" height="24" fill="currentColor">
  <path d="M12 0a12 12 0 100 24 12 12 0 000-24zm5.45 17.4a.9.9 0 01-1.25.3c-3.42-2.09-7.72-2.56-12.79-1.39a.9.9 0 11-.41-1.74c5.47-1.28 10.17-.73 14.01 1.58.42.26.56.82.24 1.25zm1.66-3.5a1.1 1.1 0 01-1.52.37c-3.91-2.4-9.86-3.1-14.48-1.67a1.1 1.1 0 11-.64-2.12c5.27-1.59 11.79-.81 16.23 1.9.51.31.67.97.41 1.52zm.15-3.76c-4.38-2.6-11.62-2.85-15.79-1.62a1.3 1.3 0 01-.74-2.49c4.76-1.43 12.73-1.13 17.79 1.84a1.3 1.3 0 11-1.26 2.27z"/>
</svg>


